<?xml version="1.0" encoding="UTF-8" standalone="no"?>
<!-- Created with Inkscape (http://www.inkscape.org/) -->
<svg id="svg2" xmlns:rdf="http://www.w3.org/1999/02/22-rdf-syntax-ns#" xmlns="http://www.w3.org/2000/svg" xml:space="preserve" height="173.85" width="463.75" version="1.1" xmlns:cc="http://creativecommons.org/ns#" xmlns:dc="http://purl.org/dc/elements/1.1/"><metadata id="metadata8"><rdf:RDF><cc:Work rdf:about=""><dc:format>image/svg+xml</dc:format><dc:type rdf:resource="http://purl.org/dc/dcmitype/StillImage"/><dc:title/></cc:Work></rdf:RDF></metadata><defs id="defs6"><clipPath id="clipPath20"><path id="path22" d="m0 151.24h380.99v-151.24h-380.99v151.24z"/></clipPath></defs><g id="g10" transform="matrix(1.25 0 0 -1.25 -.53875 187.72)"><g id="g12" transform="translate(42.009 95.038)"><path id="path14" d="m0 0-12.357-71.499h-6.542l-12.842 71.499 1.696-71.122h-9.692l2.424 125.88h7.268l14.538-98.437 14.538 98.437h7.27l2.422-125.88h-9.692l0.969 71.122z" fill="#fff"/></g><g id="g16" transform="translate(-4.8,4.8)"><g id="g18" clip-path="url(#clipPath20)"><g id="g24" transform="translate(110.07 23.773)"><path id="path26" d="m0 0c1.291 0 2.423 0.251 3.393 0.756 0.968 0.502 1.454 1.089 1.454 1.762v2.896h9.692v-2.896c0-2.014-1.416-3.757-4.241-5.224-2.828-1.47-6.262-2.244-10.298-2.328-3.877 0-7.23 0.733-10.056 2.201-2.827 1.467-4.323 3.252-4.482 5.351v111.53c0 2.014 1.412 3.754 4.24 5.223 2.825 1.468 6.258 2.245 10.298 2.33 3.878 0 7.228-0.737 10.057-2.205 2.823-1.469 4.319-3.252 4.482-5.348v-2.896h-9.692v2.896c0 0.669-0.486 1.258-1.454 1.762-0.97 0.503-2.102 0.754-3.393 0.754-1.294 0-2.422-0.251-3.392-0.754-0.969-0.504-1.454-1.093-1.454-1.762v-111.53c0-0.673 0.485-1.26 1.454-1.762 0.97-0.507 2.098-0.758 3.392-0.758" fill="#fff"/></g><g id="g28" transform="translate(141.33 145)"><path id="path30" d="m0 0h9.692v-120.85h14.538v-5.034h-24.23v125.88z" fill="#fff"/></g><g id="g32" transform="translate(189.79 23.773)"><path id="path34" d="m0 0c1.292 0 2.426 0.251 3.394 0.756 0.967 0.502 1.454 1.089 1.454 1.762v118.7h9.692v-118.7c0-2.014-1.417-3.757-4.241-5.224-2.828-1.47-6.264-2.244-10.299-2.328-3.876 0-7.229 0.733-10.055 2.201-2.827 1.467-4.323 3.252-4.482 5.351v118.7h9.69v-118.7c0-0.673 0.487-1.26 1.454-1.762 0.971-0.505 2.1-0.756 3.393-0.756" fill="#fff"/></g><g id="g36" transform="translate(243.58 77.022)"><path id="path38" d="m0 0c0 0.671-0.405 1.235-1.214 1.699-0.807 0.459-1.855 0.735-3.149 0.819h-0.484-4.847v-55.39h4.847c1.291 0 2.424 0.252 3.393 0.756 0.968 0.505 1.454 1.089 1.454 1.762v50.354zm0 60.422c0 0.671-0.486 1.26-1.454 1.762-0.969 0.504-2.102 0.755-3.393 0.755h-4.847v-55.386h4.847c1.291 0 2.424 0.252 3.393 0.756 0.968 0.502 1.454 1.088 1.454 1.761v50.352zm-19.384 7.552h14.537c3.879 0 7.229-0.734 10.057-2.202 2.825-1.469 4.319-3.253 4.482-5.35v-50.352c0-1.092-0.727-2.121-2.182-3.085-1.452-0.965-2.825-1.617-4.12-1.951 1.295-0.337 2.668-0.986 4.12-1.952 1.455-0.963 2.182-1.994 2.182-3.082v-50.354c0-2.013-1.417-3.756-4.24-5.224-2.829-1.47-6.264-2.246-10.299-2.328h-14.537v125.88z" fill="#fff"/></g><g id="g40" transform="translate(314.33 145)"><path id="path42" d="m0 0h9.691v-120.85h14.538v-5.034h-24.229v125.88z" fill="#fff"/></g><g id="g44" transform="translate(354.8 34.222)"><path id="path46" d="m0 0h9.207l-4.36 68.229-4.847-68.229zm20.595-15.105h-10.176l-0.727 10.071h-9.935l-0.726-10.071h-10.177l10.662 125.88h10.66l10.419-125.88z" fill="#fff"/></g><g id="g48" transform="translate(273.27 34.315)"><path id="path50" d="m0 0 10.48-5.841 10.483 5.841v-15.576l-10.426 3.894-10.526-3.894-0.011 15.576z" fill="#fff"/></g><path id="path52" d="m129.23 6.298h-124v5h124v-5z" fill="#29abe2"/><path id="path54" d="m252.23 6.298h-123v5h123v-5z" fill="#2e3192"/><path id="path56" d="m376.23 6.298h-124v5h124v-5z" fill="#f00"/></g></g></g></svg>
